# xmcd
#
# Track frame offsets:
#	150
#	31214
#	64750
#	99147
#	114873
#	127630
#	146163
#	159081
#	170266
#	183847
#	199843
#	213325
#	232154
#
# Disc length: 3385 seconds
#
# Revision: 0
# Processed by: cddbd v1.4PL0 Copyright (c) Steve Scherf et al.
# Submitted via: dBpowerAMP V4.0
#
DISCID=a00d370d
DTITLE=Wright Brothers - Anthology Album
DYEAR=1900
DGENRE=
TTITLE0=Solimon/Brother's Love Travelin Salvation Show
TTITLE1=American Trilogy
TTITLE2=Dawson-Rainmaker
TTITLE3=Love Come Home
TTITLE4=Hard Luck Woman
TTITLE5=Alberta Bound
TTITLE6=All Night Musician
TTITLE7=Fox on the Run
TTITLE8=Settin' the Woods on Fire
TTITLE9=Please Help Us Lord
TTITLE10=I Saw the Light
TTITLE11=Followin' My Lord
TTITLE12=A Day and Night of Sunshine
EXTD=The Wright Brothers are a band mainly from central Indiana, but have performed songs in the movie Overboard starring Goldie Hawn and Kirk Russel.
EXTT0=
EXTT1=
EXTT2=
EXTT3=
EXTT4=
EXTT5=
EXTT6=
EXTT7=
EXTT8=
EXTT9=
EXTT10=
EXTT11=
EXTT12=
PLAYORDER=
